# xmcd CD database file
#
# Track frame offsets:
#	150
#	14187
#	28114
#	42671
#	58507
#	75238
#	90392
#	107935
#	126539
#	141870
#	159950
#	173659
#	187984
#	201497
#	216540
#
# Disc length: 3091 seconds
#
# Revision: 0
# Processed by: cddbd v1.5.2PL0 Copyright (c) Steve Scherf et al.
# Submitted via: CdAid (MTCDDB.DLL V2003.07.15)
#
DISCID=d90c110f
DTITLE=Various Artist - Mixed Country Volume 7 Disk 2
DYEAR=2006
DGENRE=Country
TTITLE0=The Dollar
TTITLE1=I Love My Life
TTITLE2=Why
TTITLE3=Your Man
TTITLE4=xxl
TTITLE5=Living In Fast Forward
TTITLE6=Something's Gotta Give
TTITLE7=Bring It On Home
TTITLE8=I Never Promised You A Rose Garden
TTITLE9=Help Me Make it Through The Night
TTITLE10=Kerosene
TTITLE11=She Don't Tell Me Too
TTITLE12=Big Blue Note
TTITLE13=Drunker Than Me
TTITLE14=Nobody Gonna Tell Me What To Do
EXTD=ID3G:   2 YEAR: 2006
EXTT0=Jamey Johnson
EXTT1=Jamie O'Neal
EXTT2=Jason Aldean
EXTT3=Josh Turner
EXTT4=Keith Anderson
EXTT5=Kenney Chesney
EXTT6=LeAnne Rimes
EXTT7=Little Big Town
EXTT8=Martina McBride
EXTT9=Martina McBride
EXTT10=Miranda Lambert
EXTT11=Mongomery Gentry
EXTT12=Toby Keith
EXTT13=Trent Tomlinson
EXTT14=Van Zant
PLAYORDER=
